<svg id="Layer_1" data-name="Layer 1" xmlns="http://www.w3.org/2000/svg" width="330" height="316.31" viewBox="0 0 330 316.31"><defs><style>.cls-1{fill:#60b314;}</style></defs><g id="SvgjsG1961"><circle class="cls-1" cx="165.35" cy="100.25" r="44.45"/><ellipse class="cls-1" cx="166.44" cy="39.29" rx="4.95" ry="2.15"/><rect class="cls-1" x="163.96" y="39.32" width="4.68" height="35.15"/><ellipse class="cls-1" cx="226.3" cy="100.25" rx="2.16" ry="4.95"/><rect class="cls-1" x="191.13" y="97.77" width="35.15" height="4.68"/><ellipse class="cls-1" cx="168.51" cy="162.94" rx="4.95" ry="2.16"/><rect class="cls-1" x="166.31" y="127.77" width="4.68" height="35.15"/><ellipse class="cls-1" cx="103.69" cy="100.25" rx="2.16" ry="4.95"/><rect class="cls-1" x="103.72" y="98.05" width="35.15" height="4.68"/><ellipse class="cls-1" cx="209.67" cy="143.34" rx="4.95" ry="2.16" transform="translate(-39.95 190.24) rotate(-45)"/><rect class="cls-1" x="194.98" y="113.23" width="4.68" height="35.15" transform="translate(-34.7 177.84) rotate(-45)"/><ellipse class="cls-1" cx="122.63" cy="146.43" rx="2.16" ry="4.95" transform="translate(-67.62 129.58) rotate(-44.99)"/><rect class="cls-1" x="117.6" y="131.75" width="35.15" height="4.68" transform="translate(-55.22 134.88) rotate(-45.01)"/><ellipse class="cls-1" cx="122.63" cy="54.35" rx="4.95" ry="2.15" transform="translate(-2.51 102.65) rotate(-45.01)"/><rect class="cls-1" x="132.64" y="49.32" width="4.68" height="35.15" transform="translate(-7.77 115.04) rotate(-45)"/><ellipse class="cls-1" cx="208.05" cy="55.12" rx="2.16" ry="4.95" transform="translate(21.98 163.29) rotate(-45.01)"/><rect class="cls-1" x="177.94" y="65.13" width="35.15" height="4.68" transform="translate(9.58 158.07) rotate(-45.02)"/><ellipse class="cls-1" cx="108.76" cy="77.59" rx="4.95" ry="2.15" transform="translate(-2.01 152.28) rotate(-69.49)"/><rect class="cls-1" x="122.86" y="66.31" width="4.68" height="35.15" transform="translate(2.8 171.81) rotate(-69.51)"/><ellipse class="cls-1" cx="186.82" cy="42.87" rx="2.16" ry="4.95" transform="translate(81.19 202.81) rotate(-69.48)"/><rect class="cls-1" x="162.95" y="56.97" width="35.16" height="4.68" transform="translate(61.76 207.64) rotate(-69.5)"/><ellipse class="cls-1" cx="221.96" cy="122.99" rx="4.95" ry="2.15" transform="translate(28.98 287.76) rotate(-69.48)"/><rect class="cls-1" x="203.17" y="99.11" width="4.68" height="35.15" transform="translate(24.33 268.42) rotate(-69.53)"/><ellipse class="cls-1" cx="143.88" cy="157.7" rx="2.15" ry="4.95" transform="translate(-54.24 237.2) rotate(-69.49)"/><rect class="cls-1" x="132.59" y="138.93" width="35.15" height="4.68" transform="translate(-34.77 232.41) rotate(-69.49)"/><ellipse class="cls-1" cx="224.41" cy="76.4" rx="2.16" ry="4.95" transform="translate(-11.48 99.9) rotate(-24.49)"/><rect class="cls-1" x="190.77" y="81.23" width="35.15" height="4.68" transform="translate(-15.9 93.88) rotate(-24.49)"/><ellipse class="cls-1" cx="193.76" cy="156.14" rx="4.95" ry="2.15" transform="translate(-47.31 94.44) rotate(-24.51)"/><rect class="cls-1" x="184.26" y="122.5" width="4.68" height="35.16" transform="translate(-41.29 89.99) rotate(-24.5)"/><ellipse class="cls-1" cx="107.53" cy="123.9" rx="2.16" ry="4.95" transform="translate(-41.69 55.73) rotate(-24.49)"/><rect class="cls-1" x="106.02" y="114.39" width="35.15" height="4.68" transform="translate(-37.26 61.71) rotate(-24.48)"/><ellipse class="cls-1" cx="142.59" cy="44.21" rx="4.95" ry="2.16" transform="translate(-5.5 63.08) rotate(-24.49)"/><rect class="cls-1" x="147.42" y="42.7" width="4.68" height="35.16" transform="translate(-11.51 67.49) rotate(-24.49)"/></g><g id="SvgjsG1962"><path class="cls-1" d="M56.1,193.8,54.27,196a7.77,7.77,0,0,0-2.56-1.73,8.26,8.26,0,0,0-7.05.34,7.16,7.16,0,0,0-2.76,2.64,7.62,7.62,0,0,0-1,3.9,6.83,6.83,0,0,0,1.1,3.77,7.52,7.52,0,0,0,2.81,2.58,7.93,7.93,0,0,0,3.8,1,7.74,7.74,0,0,0,3.51-.81,7.43,7.43,0,0,0,2.69-2.25l1.76,2.38a10.47,10.47,0,0,1-3.57,2.6,10.7,10.7,0,0,1-4.41.93,10.45,10.45,0,0,1-5.34-1.41,9.88,9.88,0,0,1-3.74-3.74,10.45,10.45,0,0,1-1.41-5.34,9.4,9.4,0,0,1,1.49-5.15A10.21,10.21,0,0,1,43.4,192a10.68,10.68,0,0,1,5.19-1.32,10.65,10.65,0,0,1,7.51,3.08Zm21.51,7.12a7,7,0,0,0-1.07-3.79,7.18,7.18,0,0,0-2.79-2.59,8.28,8.28,0,0,0-7.74,0,7.25,7.25,0,0,0-2.77,2.64,7.62,7.62,0,0,0-1,3.9,6.91,6.91,0,0,0,1.1,3.77,7.63,7.63,0,0,0,2.82,2.58,8,8,0,0,0,3.82,1,7.74,7.74,0,0,0,6.6-3.66,7.3,7.3,0,0,0,1-3.82Zm2.82.16a9.8,9.8,0,0,1-1.46,5.2,10.36,10.36,0,0,1-3.83,3.63,10.68,10.68,0,0,1-5.22,1.34,10.45,10.45,0,0,1-5.34-1.41,9.88,9.88,0,0,1-3.74-3.74,10.45,10.45,0,0,1-1.41-5.34,9.4,9.4,0,0,1,1.49-5.15A10.21,10.21,0,0,1,64.75,192a10.85,10.85,0,0,1,10.48.06,10.28,10.28,0,0,1,5.2,9Zm21.12-3.69-6.68,8-6.61-8v13.42h-2.8V194l-2.28-2.75h3.69l8,9.58,8.08-9.58h3.69L104.34,194v16.77h-2.79V197.39Zm15.69,2.25h3.46c1.91,0,2.87-.93,2.87-2.78a2.66,2.66,0,0,0-.72-2.08,3.19,3.19,0,0,0-2.15-.64h-7.17v6.28a5.6,5.6,0,0,1,1.83-.65,11,11,0,0,1,1.88-.13Zm-3.71,11.17h-2.85V191.29h10a6.32,6.32,0,0,1,3,.67,4.67,4.67,0,0,1,2,1.92,6,6,0,0,1,.71,3,6.16,6.16,0,0,1-.71,3,4.87,4.87,0,0,1-2,2,6.25,6.25,0,0,1-3,.69h-3.46a7.81,7.81,0,0,0-3.71.79Zm25.56.44a10.9,10.9,0,0,1-4.73-.95,6.81,6.81,0,0,1-3-2.76,8.55,8.55,0,0,1-1-4.32V191.29h2.83v11.93a4.8,4.8,0,0,0,1.54,3.85,7.93,7.93,0,0,0,8.79,0,4.81,4.81,0,0,0,1.55-3.85V191.29h2.82v11.93a8.55,8.55,0,0,1-1,4.32,6.79,6.79,0,0,1-3,2.76,10.86,10.86,0,0,1-4.72.95Zm28.77-17.08H161v16.64h-2.77V194.17h-7v-2.88h16.61v2.88Zm6.47,16.64h-2.8V191.29h2.8ZM180.66,194l-2.28-2.75h3.69L194.6,206.2V191.29h2.88v19.52h-2.83l-11.19-13.42v13.42h-2.8ZM220,193.8,218.12,196a7.77,7.77,0,0,0-2.56-1.73,8.26,8.26,0,0,0-7.05.34,7.16,7.16,0,0,0-2.76,2.64,7.62,7.62,0,0,0-1,3.9,6.9,6.9,0,0,0,1.09,3.77,7.63,7.63,0,0,0,2.82,2.58,7.9,7.9,0,0,0,3.8,1,7.58,7.58,0,0,0,2.76-.5,8,8,0,0,0,2.37-1.38V203h-2.51l-1.23-2.83h6.57v7.59a10.47,10.47,0,0,1-3.57,2.6,10.7,10.7,0,0,1-4.41.93,10.45,10.45,0,0,1-5.34-1.41,9.88,9.88,0,0,1-3.74-3.74,10.45,10.45,0,0,1-1.41-5.34,9.4,9.4,0,0,1,1.49-5.15,10.21,10.21,0,0,1,3.83-3.57,10.68,10.68,0,0,1,5.19-1.32A10.65,10.65,0,0,1,220,193.8ZM235.18,203v7.82h-2.85V191.29h13.73v2.88H235.18v5.91a5.35,5.35,0,0,1,1.8-.63,12,12,0,0,1,1.89-.13h4.26v2.91h-4.26a11.68,11.68,0,0,0-1.89.13,5.82,5.82,0,0,0-1.8.63Zm32.2-2.07a6.89,6.89,0,0,0-1.07-3.79,7.11,7.11,0,0,0-2.79-2.59,8,8,0,0,0-3.83-.95,8.07,8.07,0,0,0-3.91,1A7.16,7.16,0,0,0,253,197.2a7.62,7.62,0,0,0-1,3.9,6.91,6.91,0,0,0,1.1,3.77,7.6,7.6,0,0,0,2.81,2.58,8,8,0,0,0,3.82,1,7.74,7.74,0,0,0,6.61-3.66,7.38,7.38,0,0,0,1-3.82Zm2.83.16a9.72,9.72,0,0,1-1.47,5.2,10.36,10.36,0,0,1-3.83,3.63,10.62,10.62,0,0,1-5.22,1.34,10.5,10.5,0,0,1-5.34-1.41,10,10,0,0,1-3.74-3.74,10.45,10.45,0,0,1-1.41-5.34,9.48,9.48,0,0,1,1.49-5.15,10.21,10.21,0,0,1,3.83-3.57,10.72,10.72,0,0,1,5.2-1.32A10.51,10.51,0,0,1,265,192.1a10.26,10.26,0,0,1,5.21,9Zm7.3-6.94v6.49a5.35,5.35,0,0,1,1.8-.63,12,12,0,0,1,1.89-.13h3.71a3.72,3.72,0,0,0,2.41-.7,2.8,2.8,0,0,0,.91-2.28,2.51,2.51,0,0,0-1-2.15,4,4,0,0,0-2.36-.6Zm8.34,13.58-2.38-5H281.2a12.94,12.94,0,0,0-1.89.13,6.39,6.39,0,0,0-1.8.63v7.33h-2.85V191.29h10.25a7.2,7.2,0,0,1,3.19.68,5,5,0,0,1,2.15,1.94,5.92,5.92,0,0,1,.81,3.14,5.43,5.43,0,0,1-1.18,3.61,6.17,6.17,0,0,1-3.32,2l1.52,3.11a10.35,10.35,0,0,0,1,1.36,2.44,2.44,0,0,0,.85.67,2.83,2.83,0,0,0,1.06.17h.28l.63,0v2.91a17.24,17.24,0,0,1-2.25-.11,5.14,5.14,0,0,1-2.09-.81,5.68,5.68,0,0,1-1.73-2.17Z"/></g><g id="SvgjsG1963"><path class="cls-1" d="M86.76,232.05l-5,5.8a20.87,20.87,0,0,0-6.92-4.67,22.42,22.42,0,0,0-19,.92,19.2,19.2,0,0,0-7.46,7.14,20.57,20.57,0,0,0-2.75,10.52,18.65,18.65,0,0,0,3,10.18,20.48,20.48,0,0,0,7.6,7,21.27,21.27,0,0,0,10.28,2.57A20.89,20.89,0,0,0,76,269.28a20.19,20.19,0,0,0,7.27-6.07L88,269.64a28.15,28.15,0,0,1-9.65,7,28.87,28.87,0,0,1-11.9,2.51A28.21,28.21,0,0,1,52,275.36a26.72,26.72,0,0,1-10.11-10.1,28.24,28.24,0,0,1-3.81-14.42,25.54,25.54,0,0,1,4-13.91,27.71,27.71,0,0,1,10.35-9.65,28.83,28.83,0,0,1,14-3.56A28.08,28.08,0,0,1,77.64,226a27.54,27.54,0,0,1,9.12,6.07Zm58.07,19.22a18.85,18.85,0,0,0-2.9-10.25,19.42,19.42,0,0,0-7.52-7,22.51,22.51,0,0,0-20.91.07,19.2,19.2,0,0,0-7.46,7.14,20.57,20.57,0,0,0-2.75,10.52,18.65,18.65,0,0,0,3,10.18,20.48,20.48,0,0,0,7.6,7,21.33,21.33,0,0,0,10.31,2.57,20.69,20.69,0,0,0,10.32-2.68,20.19,20.19,0,0,0,7.52-7.21,19.68,19.68,0,0,0,2.83-10.31Zm7.63.42a26.28,26.28,0,0,1-4,14.06,27.92,27.92,0,0,1-10.35,9.79,28.53,28.53,0,0,1-14.09,3.64,28.21,28.21,0,0,1-14.41-3.82,26.72,26.72,0,0,1-10.11-10.1,28.24,28.24,0,0,1-3.81-14.42,25.54,25.54,0,0,1,4-13.91,27.67,27.67,0,0,1,10.36-9.65,28.76,28.76,0,0,1,14-3.56,28.3,28.3,0,0,1,14.27,3.74,27.72,27.72,0,0,1,14.06,24.23Zm59.35-26.42L189.69,278h-9.11l-21.76-52.7h8.33l18,44.09,18.16-44.09ZM229.26,278H221.7v-52.7h7.56ZM255.33,233v37.23h11.94a16.09,16.09,0,0,0,8.9-2.54,17.08,17.08,0,0,0,5.86-6.64,19.86,19.86,0,0,0,2.12-9.11,22.12,22.12,0,0,0-2-9.47,15.82,15.82,0,0,0-15-9.47Zm-11.73,0-3.39-7.77h26.84a23.74,23.74,0,0,1,12.79,3.6,24.79,24.79,0,0,1,8.83,9.47,27,27,0,0,1,3.25,13.07,27.94,27.94,0,0,1-2.08,10.49,28.57,28.57,0,0,1-5.76,9.08,21.11,21.11,0,0,1-7.56,5.44,24.78,24.78,0,0,1-9.25,1.55h-19.5V233Z"/></g></svg>